<mxfile host="Electron" agent="Mozilla/5.0 (Windows NT 10.0; Win64; x64) AppleWebKit/537.36 (KHTML, like Gecko) draw.io/25.0.2 Chrome/128.0.6613.186 Electron/32.2.5 Safari/537.36" version="25.0.2">
  <diagram name="Page-1" id="e7e014a7-5840-1c2e-5031-d8a46d1fe8dd">
    <mxGraphModel dx="712" dy="835" grid="1" gridSize="10" guides="1" tooltips="1" connect="1" arrows="1" fold="1" page="1" pageScale="1" pageWidth="1169" pageHeight="826" background="none" math="0" shadow="0">
      <root>
        <mxCell id="0" />
        <mxCell id="1" parent="0" />
        <mxCell id="7Wln5KPN2ePNEnN3Cn22-60" value="" style="group" parent="1" vertex="1" connectable="0">
          <mxGeometry x="280" y="40" width="560" height="1250" as="geometry" />
        </mxCell>
        <mxCell id="2" value="Пользователь" style="swimlane;whiteSpace=wrap;startSize=23;" parent="7Wln5KPN2ePNEnN3Cn22-60" vertex="1">
          <mxGeometry width="280" height="1250" as="geometry" />
        </mxCell>
        <mxCell id="7Wln5KPN2ePNEnN3Cn22-47" style="edgeStyle=orthogonalEdgeStyle;rounded=0;orthogonalLoop=1;jettySize=auto;html=1;entryX=0.5;entryY=0;entryDx=0;entryDy=0;" parent="2" source="7Wln5KPN2ePNEnN3Cn22-42" target="7Wln5KPN2ePNEnN3Cn22-43" edge="1">
          <mxGeometry relative="1" as="geometry" />
        </mxCell>
        <mxCell id="7Wln5KPN2ePNEnN3Cn22-42" value="" style="ellipse;fillColor=strokeColor;html=1;" parent="2" vertex="1">
          <mxGeometry x="125" y="30" width="30" height="30" as="geometry" />
        </mxCell>
        <mxCell id="7Wln5KPN2ePNEnN3Cn22-43" value="Вход в систему" style="html=1;align=center;verticalAlign=top;rounded=1;absoluteArcSize=1;arcSize=10;dashed=0;whiteSpace=wrap;" parent="2" vertex="1">
          <mxGeometry x="70" y="80" width="140" height="40" as="geometry" />
        </mxCell>
        <mxCell id="7Wln5KPN2ePNEnN3Cn22-51" value="Выбор действия" style="html=1;align=center;verticalAlign=top;rounded=1;absoluteArcSize=1;arcSize=10;dashed=0;whiteSpace=wrap;" parent="2" vertex="1">
          <mxGeometry x="70" y="160" width="140" height="40" as="geometry" />
        </mxCell>
        <mxCell id="7Wln5KPN2ePNEnN3Cn22-92" style="edgeStyle=orthogonalEdgeStyle;rounded=0;orthogonalLoop=1;jettySize=auto;html=1;entryX=0.5;entryY=0;entryDx=0;entryDy=0;" parent="2" source="7Wln5KPN2ePNEnN3Cn22-54" target="7Wln5KPN2ePNEnN3Cn22-56" edge="1">
          <mxGeometry relative="1" as="geometry" />
        </mxCell>
        <mxCell id="7Wln5KPN2ePNEnN3Cn22-93" style="edgeStyle=orthogonalEdgeStyle;rounded=0;orthogonalLoop=1;jettySize=auto;html=1;entryX=0.5;entryY=0;entryDx=0;entryDy=0;" parent="2" source="7Wln5KPN2ePNEnN3Cn22-54" target="7Wln5KPN2ePNEnN3Cn22-72" edge="1">
          <mxGeometry relative="1" as="geometry">
            <Array as="points">
              <mxPoint x="60" y="280" />
              <mxPoint x="60" y="580" />
              <mxPoint x="140" y="580" />
            </Array>
          </mxGeometry>
        </mxCell>
        <mxCell id="7Wln5KPN2ePNEnN3Cn22-98" style="edgeStyle=orthogonalEdgeStyle;rounded=0;orthogonalLoop=1;jettySize=auto;html=1;entryX=0.5;entryY=0;entryDx=0;entryDy=0;exitX=0.9;exitY=0.955;exitDx=0;exitDy=0;exitPerimeter=0;" parent="2" source="7Wln5KPN2ePNEnN3Cn22-54" target="7Wln5KPN2ePNEnN3Cn22-95" edge="1">
          <mxGeometry relative="1" as="geometry">
            <mxPoint x="60" y="240" as="sourcePoint" />
            <Array as="points">
              <mxPoint x="104" y="240" />
              <mxPoint x="30" y="240" />
              <mxPoint x="30" y="1100" />
              <mxPoint x="140" y="1100" />
            </Array>
          </mxGeometry>
        </mxCell>
        <mxCell id="7Wln5KPN2ePNEnN3Cn22-54" value="" style="html=1;points=[];perimeter=orthogonalPerimeter;fillColor=strokeColor;rotation=90;" parent="2" vertex="1">
          <mxGeometry x="137.5" y="200" width="5" height="80" as="geometry" />
        </mxCell>
        <mxCell id="7Wln5KPN2ePNEnN3Cn22-55" style="edgeStyle=orthogonalEdgeStyle;rounded=0;orthogonalLoop=1;jettySize=auto;html=1;entryX=-0.014;entryY=0.502;entryDx=0;entryDy=0;entryPerimeter=0;" parent="2" source="7Wln5KPN2ePNEnN3Cn22-51" target="7Wln5KPN2ePNEnN3Cn22-54" edge="1">
          <mxGeometry relative="1" as="geometry" />
        </mxCell>
        <mxCell id="7Wln5KPN2ePNEnN3Cn22-61" style="edgeStyle=orthogonalEdgeStyle;rounded=0;orthogonalLoop=1;jettySize=auto;html=1;entryX=0.5;entryY=0;entryDx=0;entryDy=0;" parent="2" source="7Wln5KPN2ePNEnN3Cn22-56" target="7Wln5KPN2ePNEnN3Cn22-57" edge="1">
          <mxGeometry relative="1" as="geometry" />
        </mxCell>
        <mxCell id="7Wln5KPN2ePNEnN3Cn22-56" value="Просмотр документа" style="html=1;align=center;verticalAlign=top;rounded=1;absoluteArcSize=1;arcSize=10;dashed=0;whiteSpace=wrap;" parent="2" vertex="1">
          <mxGeometry x="70" y="280" width="140" height="40" as="geometry" />
        </mxCell>
        <mxCell id="7Wln5KPN2ePNEnN3Cn22-57" value="Поиск нужного документа" style="html=1;align=center;verticalAlign=top;rounded=1;absoluteArcSize=1;arcSize=10;dashed=0;whiteSpace=wrap;" parent="2" vertex="1">
          <mxGeometry x="70" y="360" width="140" height="40" as="geometry" />
        </mxCell>
        <mxCell id="7Wln5KPN2ePNEnN3Cn22-66" value="Выбор документа из списка" style="html=1;align=center;verticalAlign=top;rounded=1;absoluteArcSize=1;arcSize=10;dashed=0;whiteSpace=wrap;" parent="2" vertex="1">
          <mxGeometry x="70" y="480" width="140" height="40" as="geometry" />
        </mxCell>
        <mxCell id="7Wln5KPN2ePNEnN3Cn22-75" style="edgeStyle=orthogonalEdgeStyle;rounded=0;orthogonalLoop=1;jettySize=auto;html=1;entryX=0.5;entryY=0;entryDx=0;entryDy=0;" parent="2" source="7Wln5KPN2ePNEnN3Cn22-72" target="7Wln5KPN2ePNEnN3Cn22-73" edge="1">
          <mxGeometry relative="1" as="geometry" />
        </mxCell>
        <mxCell id="7Wln5KPN2ePNEnN3Cn22-72" value="Создание документа" style="html=1;align=center;verticalAlign=top;rounded=1;absoluteArcSize=1;arcSize=10;dashed=0;whiteSpace=wrap;" parent="2" vertex="1">
          <mxGeometry x="70" y="600" width="140" height="40" as="geometry" />
        </mxCell>
        <mxCell id="7Wln5KPN2ePNEnN3Cn22-73" value="Ввод метаданных документа" style="html=1;align=center;verticalAlign=top;rounded=1;absoluteArcSize=1;arcSize=10;dashed=0;whiteSpace=wrap;" parent="2" vertex="1">
          <mxGeometry x="70" y="680" width="140" height="40" as="geometry" />
        </mxCell>
        <mxCell id="7Wln5KPN2ePNEnN3Cn22-89" style="edgeStyle=orthogonalEdgeStyle;rounded=0;orthogonalLoop=1;jettySize=auto;html=1;entryX=0.5;entryY=0;entryDx=0;entryDy=0;" parent="2" source="7Wln5KPN2ePNEnN3Cn22-78" target="7Wln5KPN2ePNEnN3Cn22-79" edge="1">
          <mxGeometry relative="1" as="geometry" />
        </mxCell>
        <mxCell id="7Wln5KPN2ePNEnN3Cn22-78" value="Публикация документа" style="html=1;align=center;verticalAlign=top;rounded=1;absoluteArcSize=1;arcSize=10;dashed=0;whiteSpace=wrap;" parent="2" vertex="1">
          <mxGeometry x="70" y="800" width="140" height="40" as="geometry" />
        </mxCell>
        <mxCell id="7Wln5KPN2ePNEnN3Cn22-79" value="Определение аудитории, шагов согласования и параметров доступа для документа" style="html=1;align=center;verticalAlign=top;rounded=1;absoluteArcSize=1;arcSize=10;dashed=0;whiteSpace=wrap;" parent="2" vertex="1">
          <mxGeometry x="70" y="880" width="140" height="80" as="geometry" />
        </mxCell>
        <mxCell id="7Wln5KPN2ePNEnN3Cn22-94" style="edgeStyle=orthogonalEdgeStyle;rounded=0;orthogonalLoop=1;jettySize=auto;html=1;entryX=0.457;entryY=0.1;entryDx=0;entryDy=0;entryPerimeter=0;" parent="2" source="7Wln5KPN2ePNEnN3Cn22-54" target="7Wln5KPN2ePNEnN3Cn22-78" edge="1">
          <mxGeometry relative="1" as="geometry">
            <Array as="points">
              <mxPoint x="40" y="270" />
              <mxPoint x="40" y="780" />
              <mxPoint x="134" y="780" />
            </Array>
          </mxGeometry>
        </mxCell>
        <mxCell id="7Wln5KPN2ePNEnN3Cn22-97" style="edgeStyle=orthogonalEdgeStyle;rounded=0;orthogonalLoop=1;jettySize=auto;html=1;entryX=0.5;entryY=0;entryDx=0;entryDy=0;" parent="2" source="7Wln5KPN2ePNEnN3Cn22-95" target="7Wln5KPN2ePNEnN3Cn22-96" edge="1">
          <mxGeometry relative="1" as="geometry" />
        </mxCell>
        <mxCell id="7Wln5KPN2ePNEnN3Cn22-95" value="Выход из системы" style="html=1;align=center;verticalAlign=top;rounded=1;absoluteArcSize=1;arcSize=10;dashed=0;whiteSpace=wrap;" parent="2" vertex="1">
          <mxGeometry x="70" y="1120" width="140" height="40" as="geometry" />
        </mxCell>
        <mxCell id="7Wln5KPN2ePNEnN3Cn22-96" value="" style="ellipse;html=1;shape=endState;fillColor=strokeColor;" parent="2" vertex="1">
          <mxGeometry x="125" y="1199" width="30" height="30" as="geometry" />
        </mxCell>
        <mxCell id="3" value="Система" style="swimlane;whiteSpace=wrap" parent="7Wln5KPN2ePNEnN3Cn22-60" vertex="1">
          <mxGeometry x="280" width="280" height="1250" as="geometry" />
        </mxCell>
        <mxCell id="7Wln5KPN2ePNEnN3Cn22-46" value="" style="rhombus;" parent="3" vertex="1">
          <mxGeometry x="120" y="80" width="40" height="40" as="geometry" />
        </mxCell>
        <mxCell id="7Wln5KPN2ePNEnN3Cn22-63" style="edgeStyle=orthogonalEdgeStyle;rounded=0;orthogonalLoop=1;jettySize=auto;html=1;entryX=0.5;entryY=0;entryDx=0;entryDy=0;" parent="3" source="7Wln5KPN2ePNEnN3Cn22-58" target="7Wln5KPN2ePNEnN3Cn22-59" edge="1">
          <mxGeometry relative="1" as="geometry" />
        </mxCell>
        <mxCell id="7Wln5KPN2ePNEnN3Cn22-58" value="Отображение результатов поиска" style="html=1;align=center;verticalAlign=top;rounded=1;absoluteArcSize=1;arcSize=10;dashed=0;whiteSpace=wrap;" parent="3" vertex="1">
          <mxGeometry x="70" y="360" width="140" height="40" as="geometry" />
        </mxCell>
        <mxCell id="7Wln5KPN2ePNEnN3Cn22-59" value="" style="rhombus;" parent="3" vertex="1">
          <mxGeometry x="120" y="440" width="40" height="40" as="geometry" />
        </mxCell>
        <mxCell id="7Wln5KPN2ePNEnN3Cn22-69" value="Отображение выбранного документа" style="html=1;align=center;verticalAlign=top;rounded=1;absoluteArcSize=1;arcSize=10;dashed=0;whiteSpace=wrap;" parent="3" vertex="1">
          <mxGeometry x="70" y="520" width="140" height="40" as="geometry" />
        </mxCell>
        <mxCell id="7Wln5KPN2ePNEnN3Cn22-77" style="edgeStyle=orthogonalEdgeStyle;rounded=0;orthogonalLoop=1;jettySize=auto;html=1;" parent="3" source="7Wln5KPN2ePNEnN3Cn22-74" edge="1">
          <mxGeometry relative="1" as="geometry">
            <mxPoint x="220" y="180" as="targetPoint" />
            <Array as="points">
              <mxPoint x="240" y="700" />
              <mxPoint x="240" y="180" />
            </Array>
          </mxGeometry>
        </mxCell>
        <mxCell id="7Wln5KPN2ePNEnN3Cn22-74" value="Сохранение документа как черновика" style="html=1;align=center;verticalAlign=top;rounded=1;absoluteArcSize=1;arcSize=10;dashed=0;whiteSpace=wrap;" parent="3" vertex="1">
          <mxGeometry x="70" y="680" width="140" height="40" as="geometry" />
        </mxCell>
        <mxCell id="7Wln5KPN2ePNEnN3Cn22-91" style="edgeStyle=orthogonalEdgeStyle;rounded=0;orthogonalLoop=1;jettySize=auto;html=1;entryX=0.5;entryY=0;entryDx=0;entryDy=0;" parent="3" source="7Wln5KPN2ePNEnN3Cn22-80" target="7Wln5KPN2ePNEnN3Cn22-81" edge="1">
          <mxGeometry relative="1" as="geometry" />
        </mxCell>
        <mxCell id="7Wln5KPN2ePNEnN3Cn22-80" value="Согласование документа" style="html=1;align=center;verticalAlign=top;rounded=1;absoluteArcSize=1;arcSize=10;dashed=0;whiteSpace=wrap;" parent="3" vertex="1">
          <mxGeometry x="70" y="900" width="140" height="40" as="geometry" />
        </mxCell>
        <mxCell id="7Wln5KPN2ePNEnN3Cn22-85" style="edgeStyle=orthogonalEdgeStyle;rounded=0;orthogonalLoop=1;jettySize=auto;html=1;entryX=0.5;entryY=0;entryDx=0;entryDy=0;" parent="3" source="7Wln5KPN2ePNEnN3Cn22-81" target="7Wln5KPN2ePNEnN3Cn22-84" edge="1">
          <mxGeometry relative="1" as="geometry" />
        </mxCell>
        <mxCell id="7Wln5KPN2ePNEnN3Cn22-86" value="Документ согласован" style="edgeLabel;html=1;align=center;verticalAlign=middle;resizable=0;points=[];" parent="7Wln5KPN2ePNEnN3Cn22-85" vertex="1" connectable="0">
          <mxGeometry x="-0.25" y="-3" relative="1" as="geometry">
            <mxPoint as="offset" />
          </mxGeometry>
        </mxCell>
        <mxCell id="7Wln5KPN2ePNEnN3Cn22-81" value="" style="rhombus;" parent="3" vertex="1">
          <mxGeometry x="120" y="980" width="40" height="40" as="geometry" />
        </mxCell>
        <mxCell id="7Wln5KPN2ePNEnN3Cn22-88" style="edgeStyle=orthogonalEdgeStyle;rounded=0;orthogonalLoop=1;jettySize=auto;html=1;" parent="3" source="7Wln5KPN2ePNEnN3Cn22-84" edge="1">
          <mxGeometry relative="1" as="geometry">
            <mxPoint x="240" y="180" as="targetPoint" />
            <Array as="points">
              <mxPoint x="260" y="1080" />
              <mxPoint x="260" y="180" />
            </Array>
          </mxGeometry>
        </mxCell>
        <mxCell id="7Wln5KPN2ePNEnN3Cn22-84" value="Публикация документа в общий доступ" style="html=1;align=center;verticalAlign=top;rounded=1;absoluteArcSize=1;arcSize=10;dashed=0;whiteSpace=wrap;" parent="3" vertex="1">
          <mxGeometry x="70" y="1060" width="140" height="40" as="geometry" />
        </mxCell>
        <mxCell id="7Wln5KPN2ePNEnN3Cn22-48" style="edgeStyle=orthogonalEdgeStyle;rounded=0;orthogonalLoop=1;jettySize=auto;html=1;entryX=0;entryY=0.5;entryDx=0;entryDy=0;" parent="7Wln5KPN2ePNEnN3Cn22-60" source="7Wln5KPN2ePNEnN3Cn22-43" target="7Wln5KPN2ePNEnN3Cn22-46" edge="1">
          <mxGeometry relative="1" as="geometry" />
        </mxCell>
        <mxCell id="7Wln5KPN2ePNEnN3Cn22-49" style="edgeStyle=orthogonalEdgeStyle;rounded=0;orthogonalLoop=1;jettySize=auto;html=1;entryX=0.643;entryY=0;entryDx=0;entryDy=0;entryPerimeter=0;" parent="7Wln5KPN2ePNEnN3Cn22-60" source="7Wln5KPN2ePNEnN3Cn22-46" target="7Wln5KPN2ePNEnN3Cn22-43" edge="1">
          <mxGeometry relative="1" as="geometry">
            <Array as="points">
              <mxPoint x="420" y="60" />
              <mxPoint x="160" y="60" />
            </Array>
          </mxGeometry>
        </mxCell>
        <mxCell id="7Wln5KPN2ePNEnN3Cn22-50" value="Неудавшийся вход" style="edgeLabel;html=1;align=center;verticalAlign=middle;resizable=0;points=[];" parent="7Wln5KPN2ePNEnN3Cn22-49" vertex="1" connectable="0">
          <mxGeometry x="-0.5911" y="-1" relative="1" as="geometry">
            <mxPoint x="-29" as="offset" />
          </mxGeometry>
        </mxCell>
        <mxCell id="7Wln5KPN2ePNEnN3Cn22-52" style="edgeStyle=orthogonalEdgeStyle;rounded=0;orthogonalLoop=1;jettySize=auto;html=1;entryX=0.5;entryY=0;entryDx=0;entryDy=0;" parent="7Wln5KPN2ePNEnN3Cn22-60" source="7Wln5KPN2ePNEnN3Cn22-46" target="7Wln5KPN2ePNEnN3Cn22-51" edge="1">
          <mxGeometry relative="1" as="geometry">
            <Array as="points">
              <mxPoint x="420" y="140" />
              <mxPoint x="140" y="140" />
            </Array>
          </mxGeometry>
        </mxCell>
        <mxCell id="7Wln5KPN2ePNEnN3Cn22-53" value="Успешный вход" style="edgeLabel;html=1;align=center;verticalAlign=middle;resizable=0;points=[];" parent="7Wln5KPN2ePNEnN3Cn22-52" vertex="1" connectable="0">
          <mxGeometry x="-0.1953" y="-1" relative="1" as="geometry">
            <mxPoint x="29" as="offset" />
          </mxGeometry>
        </mxCell>
        <mxCell id="7Wln5KPN2ePNEnN3Cn22-62" style="edgeStyle=orthogonalEdgeStyle;rounded=0;orthogonalLoop=1;jettySize=auto;html=1;entryX=0;entryY=0.5;entryDx=0;entryDy=0;" parent="7Wln5KPN2ePNEnN3Cn22-60" source="7Wln5KPN2ePNEnN3Cn22-57" target="7Wln5KPN2ePNEnN3Cn22-58" edge="1">
          <mxGeometry relative="1" as="geometry" />
        </mxCell>
        <mxCell id="7Wln5KPN2ePNEnN3Cn22-64" style="edgeStyle=orthogonalEdgeStyle;rounded=0;orthogonalLoop=1;jettySize=auto;html=1;entryX=0.5;entryY=1;entryDx=0;entryDy=0;" parent="7Wln5KPN2ePNEnN3Cn22-60" source="7Wln5KPN2ePNEnN3Cn22-59" target="7Wln5KPN2ePNEnN3Cn22-57" edge="1">
          <mxGeometry relative="1" as="geometry" />
        </mxCell>
        <mxCell id="7Wln5KPN2ePNEnN3Cn22-65" value="Документов не найдено" style="edgeLabel;html=1;align=center;verticalAlign=middle;resizable=0;points=[];" parent="7Wln5KPN2ePNEnN3Cn22-64" vertex="1" connectable="0">
          <mxGeometry x="-0.575" y="1" relative="1" as="geometry">
            <mxPoint as="offset" />
          </mxGeometry>
        </mxCell>
        <mxCell id="7Wln5KPN2ePNEnN3Cn22-67" style="edgeStyle=orthogonalEdgeStyle;rounded=0;orthogonalLoop=1;jettySize=auto;html=1;entryX=1;entryY=0.5;entryDx=0;entryDy=0;" parent="7Wln5KPN2ePNEnN3Cn22-60" source="7Wln5KPN2ePNEnN3Cn22-59" target="7Wln5KPN2ePNEnN3Cn22-66" edge="1">
          <mxGeometry relative="1" as="geometry">
            <Array as="points">
              <mxPoint x="420" y="500" />
            </Array>
          </mxGeometry>
        </mxCell>
        <mxCell id="7Wln5KPN2ePNEnN3Cn22-68" value="Найдены документы по запросу" style="edgeLabel;html=1;align=center;verticalAlign=middle;resizable=0;points=[];" parent="7Wln5KPN2ePNEnN3Cn22-67" vertex="1" connectable="0">
          <mxGeometry x="-0.1478" relative="1" as="geometry">
            <mxPoint x="-22" as="offset" />
          </mxGeometry>
        </mxCell>
        <mxCell id="7Wln5KPN2ePNEnN3Cn22-70" style="edgeStyle=orthogonalEdgeStyle;rounded=0;orthogonalLoop=1;jettySize=auto;html=1;" parent="7Wln5KPN2ePNEnN3Cn22-60" source="7Wln5KPN2ePNEnN3Cn22-66" target="7Wln5KPN2ePNEnN3Cn22-69" edge="1">
          <mxGeometry relative="1" as="geometry">
            <Array as="points">
              <mxPoint x="140" y="540" />
            </Array>
          </mxGeometry>
        </mxCell>
        <mxCell id="7Wln5KPN2ePNEnN3Cn22-71" style="edgeStyle=orthogonalEdgeStyle;rounded=0;orthogonalLoop=1;jettySize=auto;html=1;entryX=1;entryY=0.5;entryDx=0;entryDy=0;" parent="7Wln5KPN2ePNEnN3Cn22-60" source="7Wln5KPN2ePNEnN3Cn22-69" target="7Wln5KPN2ePNEnN3Cn22-51" edge="1">
          <mxGeometry relative="1" as="geometry">
            <Array as="points">
              <mxPoint x="500" y="540" />
              <mxPoint x="500" y="180" />
            </Array>
          </mxGeometry>
        </mxCell>
        <mxCell id="7Wln5KPN2ePNEnN3Cn22-76" style="edgeStyle=orthogonalEdgeStyle;rounded=0;orthogonalLoop=1;jettySize=auto;html=1;" parent="7Wln5KPN2ePNEnN3Cn22-60" source="7Wln5KPN2ePNEnN3Cn22-73" target="7Wln5KPN2ePNEnN3Cn22-74" edge="1">
          <mxGeometry relative="1" as="geometry" />
        </mxCell>
        <mxCell id="7Wln5KPN2ePNEnN3Cn22-82" style="edgeStyle=orthogonalEdgeStyle;rounded=0;orthogonalLoop=1;jettySize=auto;html=1;entryX=0.5;entryY=1;entryDx=0;entryDy=0;" parent="7Wln5KPN2ePNEnN3Cn22-60" source="7Wln5KPN2ePNEnN3Cn22-81" target="7Wln5KPN2ePNEnN3Cn22-79" edge="1">
          <mxGeometry relative="1" as="geometry" />
        </mxCell>
        <mxCell id="7Wln5KPN2ePNEnN3Cn22-83" value="Документ не согласован" style="edgeLabel;html=1;align=center;verticalAlign=middle;resizable=0;points=[];" parent="7Wln5KPN2ePNEnN3Cn22-82" vertex="1" connectable="0">
          <mxGeometry x="-0.42" y="-1" relative="1" as="geometry">
            <mxPoint as="offset" />
          </mxGeometry>
        </mxCell>
        <mxCell id="7Wln5KPN2ePNEnN3Cn22-90" style="edgeStyle=orthogonalEdgeStyle;rounded=0;orthogonalLoop=1;jettySize=auto;html=1;entryX=0;entryY=0.5;entryDx=0;entryDy=0;" parent="7Wln5KPN2ePNEnN3Cn22-60" source="7Wln5KPN2ePNEnN3Cn22-79" target="7Wln5KPN2ePNEnN3Cn22-80" edge="1">
          <mxGeometry relative="1" as="geometry" />
        </mxCell>
      </root>
    </mxGraphModel>
  </diagram>
</mxfile>
